# AST/ASF file generated using VICON BodyLanguage
# -----------------------------------------------
:version 1.10
:name VICON
:units
  mass 1.0
  length 0.45
  angle deg
:documentation
   .ast/.asf automatically generated from VICON data using
   VICON BodyBuilder and BodyLanguage model FoxedUp or BRILLIANT.MOD
:root
   order TX TY TZ RX RY RZ
   axis XYZ
   position 0 0 0  
   orientation 0 0 0 
:bonedata
  begin
     id 1 
     name lhipjoint
     direction 0.64773 -0.699417 0.302095 
     length 2.48597 
     axis 0 0 0  XYZ
  end
  begin
     id 2 
     name lfemur
     direction 0.34202 -0.939693 0  
     length 6.71947  
     axis 0 0 20  XYZ
    dof rx ry rz
    limits (-160.0 20.0)
           (-70.0 70.0)
           (-60.0 70.0)
  end
  begin
     id 3 
     name ltibia
     direction 0.34202 -0.939693 0   
     length 8.08777   
     axis 0 0 20   XYZ
    dof rx
    limits (-10.0 170.0)
  end
  begin
     id 4 
     name lfoot
     direction 0.0808503 -0.222134 0.971658   
     length 2.08264   
     axis -90 7.62852e-016 20   XYZ
    dof rx rz
    limits (-45.0 90.0)
           (-70.0 20.0)
  end
  begin
     id 5 
     name ltoes
     direction 1.53502e-011 -4.22007e-011 1   
     length 1.04662   
     axis -90 7.62852e-016 20   XYZ
    dof rx
    limits (-90.0 20.0)
  end
  begin
     id 6 
     name rhipjoint
     direction -0.610924 -0.726792 0.313919   
     length 2.39233  
     axis 0 0 0  XYZ 
  end
  begin
     id 7 
     name rfemur
     direction -0.34202 -0.939693 0   
     length 6.96955   
     axis 0 0 -20   XYZ
    dof rx ry rz
    limits (-160.0 20.0)
           (-70.0 70.0)
           (-70.0 60.0)
  end
  begin
     id 8 
     name rtibia
     direction -0.34202 -0.939693 0   
     length 8.19584   
     axis 0 0 -20   XYZ
    dof rx
    limits (-10.0 170.0)
 end
 begin
     id 9 
     name rfoot
     direction -0.077777 -0.213691 0.9738   
     length 2.07539  
     axis -90 -7.62852e-016 -20   XYZ
    dof rx rz
    limits (-45.0 90.0)
           (-20.0 70.0)
  end
  begin
     id 10 
     name rtoes
     direction -1.53558e-011 -4.22006e-011 1   
     length 1.04381   
     axis -90 -7.62852e-016 -20   XYZ
    dof rx
    limits (-90.0 20.0)
  end
  begin
     id 11 
     name lowerback
     direction -0.00971646 0.996074 0.0879841   
     length 1.67643   
     axis 0 0 0   XYZ
    dof rx ry rz
    limits (-20.0 45.0)
           (-30.0 30.0)
           (-30.0 30.0)
  end
  begin
     id 12 
     name upperback
     direction 0.0127391 0.991676 0.128127   
     length 1.63741   
     axis 0 0 0   XYZ
    dof rx ry rz
    limits (-20.0 45.0)
           (-30.0 30.0)
           (-30.0 30.0)
  end
  begin
     id 13 
     name thorax
     direction 0.0167583 0.996049 0.0872067   
     length 1.65931   
     axis 0 0 0   XYZ
    dof rx ry rz
    limits (-20.0 45.0)
           (-30.0 30.0)
           (-30.0 30.0)
  end
  begin
     id 14 
     name lowerneck
     direction -0.0317829 0.998312 0.0486079   
     length 1.79021   
     axis 0 0 0   XYZ
    dof rx ry rz
    limits (-20.0 45.0)
           (-30.0 30.0)
           (-30.0 30.0)
  end
  begin
     id 15 
     name upperneck
     direction 0.0896851 0.972452 -0.215159   
     length 1.78797   
     axis 0 0 0   XYZ
    dof rx ry rz
    limits (-20.0 45.0)
           (-30.0 30.0)
           (-30.0 30.0)
  end
  begin
     id 16
     name head
     direction 0.0310949 0.996503 -0.0775582  
     length 1.81549  
     axis 0 0 0   XYZ
    dof rx ry rz
    limits (-20.0 45.0)
           (-30.0 30.0)
           (-30.0 30.0)
  end
  begin
     id 17 
     name lclavicle
     direction 0.853638 0.502051 -0.138733  
     length 3.31627  
     axis 0 0 0   XYZ
    dof ry rz
    limits (-20.0 10.0)
           (0.0 20.0)
  end
  begin
     id 18 
     name lhumerus
     direction 1 -4.48962e-011 -1.41788e-018   
     length 5.54893   
     axis 180 -30 -90   XYZ
    dof rx ry rz
    limits (-60.0 90.0)
           (-90.0 90.0)
           (-90.0 90.0)
  end
  begin
     id 19
     name lradius
     direction 1 -4.48962e-011 -4.95754e-027   
     length 3.02898   
     axis 180 -30 -90   XYZ
    dof rx
    limits (-10.0 170.0)
  end
  begin
     id 20
     name lwrist
     direction 1 -4.48952e-011 -1.03764e-026   
     length 1.51449   
     axis 9.09556e-015 90 90   XYZ
    dof ry
    limits (-180.0 0.0)
 end
  begin
     id 21 
     name lhand
     direction 1 -4.4902e-011 -2.07528e-026   
     length 0.640951   
     axis 1.3242e-014 90 90   XYZ
    dof rx rz
    limits (-90.0 90.0)
           (-45.0 45.0)
  end
  begin
     id 22 
     name lfingers
     direction 1 -4.49014e-011 -4.15056e-026   
     length 0.516751   
     axis 2.64841e-014 90 90   XYZ
    dof rx
    limits (0.0 90.0)
  end
  begin
     id 23
     name lthumb
     direction 0.707107 -6.35008e-011 0.707107   
     length 0.741954   
     axis -90 45 2.85299e-015   XYZ
    dof rx rz
    limits (-45.0 45.0)
           (-45.0 45.0)
  end
  begin
     id 24 
     name rclavicle
     direction -0.888531 0.455324 -0.0565039   
     length 3.20126  
     axis 0 0 0   XYZ 
    dof ry rz
    limits (-10.0 20.0)
           (-20.0 0.0)
  end
  begin
     id 25 
     name rhumerus
     direction -1 -4.48946e-011 -8.98298e-028  
     length 5.3519   
     axis 180 30 90   XYZ
    dof rx ry rz
    limits (-90.0 60.0)
           (-90.0 90.0)
           (-90.0 90.0)
  end
  begin
     id 26 
     name rradius
     direction -1 -4.4899e-011 -3.18779e-027   
     length 3.02531   
     axis 180 30 90   XYZ
    dof rx
    limits (-10.0 170.0)
  end
  begin
     id 27 
     name rwrist
     direction -1 -4.4897e-011 -1.03764e-026   
     length 1.51266   
     axis 9.09556e-015 -90 -90   XYZ
    dof ry
    limits (-180.0 0.0)
  end
  begin
     id 28
     name rhand
     direction -1 -4.48941e-011 -2.07528e-026   
     length 0.78389   
     axis 1.3242e-014 -90 -90   XYZ
    dof rx rz
    limits (-90.0 90.0)
           (-45.0 45.0)
  end
  begin
     id 29
     name rfingers
     direction -1 -4.49012e-011 -4.15056e-026   
     length 0.631992   
     axis 2.64841e-014 -90 -90   XYZ
    dof rx
    limits (0.0 90.0)
  end
  begin
     id 30
     name rthumb
     direction -0.707107 -6.3496e-011 0.707107   
     length 0.907418   
     axis -90 -45 -2.85299e-015   XYZ
    dof rx rz
    limits (-45.0 45.0)
           (-45.0 45.0)
  end
:hierarchy
  begin
    root lhipjoint rhipjoint lowerback
    lhipjoint lfemur
    lfemur ltibia
    ltibia lfoot
    lfoot ltoes
    rhipjoint rfemur
    rfemur rtibia
    rtibia rfoot
    rfoot rtoes
    lowerback upperback
    upperback thorax
    thorax lowerneck lclavicle rclavicle
    lowerneck upperneck
    upperneck head
    lclavicle lhumerus
    lhumerus lradius
    lradius lwrist
    lwrist lhand lthumb
    lhand lfingers
    rclavicle rhumerus
    rhumerus rradius
    rradius rwrist
    rwrist rhand rthumb
    rhand rfingers
  end

#!OML:ASF E:\Style3\Style3.ASF
:FULLY-SPECIFIED
:DEGREES
966
root 0.152745 17.816 1.0231 -163.55 79.8977 182.915
lowerback -8.96712 0.333684 -1.58628
upperback -9.97341 1.19913 2.01608
thorax -5.49081 1.04256 3.0206
lowerneck -8.81598 2.59545 -1.99988
upperneck 13.8668 3.53657 2.75434
head 5.54379 1.8731 1.45298
rclavicle 3.68746e-014 1.23246e-014
rhumerus -18.1104 42.2072 -67.7097
rradius 122.48
rwrist -10.0026
rhand 10.604 16.3705
rfingers 7.12502
rthumb 35.699 -10.0194
lclavicle 3.68746e-014 1.23246e-014
lhumerus -26.2677 -34.4565 79.0206
lradius 120.519
lwrist 28.6681
lhand -6.13262 29.2949
lfingers 7.12502
lthumb 19.7049 58.3162
rfemur -12.5907 11.1579 16.9327
rtibia 14.2307
rfoot -13.8644 -20.8638
rtoes -18.7442
lfemur -7.77164 -13.5802 -12.0447
ltibia 2.06736e-014
lfoot -5.77568 12.6395
ltoes -19.9254
967
root 0.157434 17.8146 1.02222 -163.755 79.8164 182.868
lowerback -8.87187 0.292331 -1.51969
upperback -9.98306 1.13888 2.00914
thorax -5.54812 1.00787 2.97182
lowerneck -8.23809 2.38821 -1.99303
upperneck 13.0828 3.35376 1.92899
head 5.22225 1.72209 1.16033
rclavicle 1.78906e-014 6.75868e-015
rhumerus -18.3282 42.7524 -68.2663
rradius 122.06
rwrist -8.3398
rhand 11.489 17.0277
rfingers 7.12502
rthumb 36.5372 -9.15505
lclavicle 1.78906e-014 6.75868e-015
lhumerus -26.7165 -35.0552 79.4546
lradius 120.323
lwrist 29.4436
lhand -5.96724 29.5067
lfingers 7.12502
lthumb 19.8638 58.5116
rfemur -12.3954 11.1284 16.9744
rtibia 14.262
rfoot -13.9561 -20.8621
rtoes -18.5032
lfemur -7.59751 -13.6752 -12.0804
ltibia 1.35174e-014
lfoot -5.78689 12.6188
ltoes -19.9991
968
root 0.160767 17.8132 1.02197 -164.083 79.6812 182.667
lowerback -8.7932 0.20806 -1.50825
upperback -9.99068 1.02609 2.04388
thorax -5.59319 0.952161 2.99643
lowerneck -7.82772 2.13245 -2.08329
upperneck 12.4646 3.12561 1.01936
head 4.9813 1.54546 0.864154
rclavicle -4.42296e-014 -4.37326e-015
rhumerus -18.4498 43.3268 -68.7623
rradius 121.705
rwrist -6.7968
rhand 12.0676 17.6989
rfingers 7.12502
rthumb 37.0847 -8.34358
lclavicle -4.42296e-014 -4.37326e-015
lhumerus -27.1753 -35.5359 79.934
lradius 120.178
lwrist 29.7565
lhand -6.33474 29.584
lfingers 7.12502
lthumb 19.5105 58.6251
rfemur -12.2107 11.0775 16.9999
rtibia 14.2675
rfoot -14.0683 -20.9207
rtoes -18.185
lfemur -7.48519 -13.8258 -12.1211
ltibia -1.03368e-014
lfoot -5.72033 12.6236
ltoes -20.467
969
root 0.163267 17.8121 1.02394 -164.804 79.5468 182.078
lowerback -8.73227 0.128318 -1.56084
upperback -9.95751 0.915703 2.03303
thorax -5.58423 0.896917 3.01007
lowerneck -7.486 1.78351 -2.05318
upperneck 11.8696 2.78531 -0.163586
head 4.76538 1.30858 0.462467
rclavicle 9.64106e-015 7.55382e-015
rhumerus -18.7773 43.7512 -69.3708
rradius 121.546
rwrist -5.39618
rhand 12.4057 18.5232
rfingers 7.12502
rthumb 37.4043 -7.43571
lclavicle 9.64106e-015 7.55382e-015
lhumerus -27.5135 -36.0688 80.2864
lradius 120.03
lwrist 29.6172
lhand -7.08623 29.1714
lfingers 7.12502
lthumb 18.7879 58.2841
rfemur -12.0335 11.1566 16.9456
rtibia 14.3048
rfoot -14.1848 -21.1147
rtoes -17.9743
lfemur -7.37287 -13.997 -12.2374
ltibia 7.15625e-015
lfoot -5.6297 12.6662
ltoes -20.8544
970
root 0.161848 17.812 1.02638 -165.238 79.3603 181.732
lowerback -8.6802 0.0369633 -1.53452
upperback -9.91864 0.786303 2.026
thorax -5.56138 0.826925 2.98288
lowerneck -7.03889 1.42153 -2.0048
upperneck 10.6211 2.40779 -1.41795
head 4.80375 1.06487 0.0322905
rclavicle -2.10712e-014 -3.10104e-014
rhumerus -19.1279 44.1126 -70.0237
rradius 121.479
rwrist -4.35481
rhand 12.4066 19.0604
rfingers 7.12502
rthumb 37.4052 -6.89819
lclavicle -2.10712e-014 -3.10104e-014
lhumerus -27.7421 -36.5266 80.4714
lradius 119.915
lwrist 29.223
lhand -7.92618 28.7957
lfingers 7.12502
lthumb 17.9799 57.9847
rfemur -11.9118 11.191 16.9448
rtibia 14.3407
rfoot -14.2342 -21.341
rtoes -18.2151
lfemur -7.33098 -14.1966 -12.2728
ltibia 2.8625e-014
lfoot -5.51959 12.6838
ltoes -21.0774
971
root 0.160513 17.8119 1.03005 -165.791 79.1264 181.233
lowerback -8.59283 -0.0784349 -1.51638
upperback -9.92272 0.628492 2.01018
thorax -5.6031 0.745615 2.94954
lowerneck -6.57381 1.07266 -2.11878
upperneck 9.7906 2.04322 -2.57905
head 4.42129 0.83732 -0.368861
rclavicle 1.48095e-014 -3.97569e-015
rhumerus -19.5317 44.4365 -70.6856
rradius 121.522
rwrist -3.90881
rhand 12.3909 19.2822
rfingers 7.12502
rthumb 37.3903 -6.68038
lclavicle 1.48095e-014 -3.97569e-015
lhumerus -28.0125 -36.774 80.6563
lradius 119.874
lwrist 28.5411
lhand -8.54279 28.6104
lfingers 7.12502
lthumb 17.3865 57.8528
rfemur -11.8207 11.1333 16.923
rtibia 14.3816
rfoot -14.3251 -21.5354
rtoes -18.1427
lfemur -7.34366 -14.4427 -12.3077
ltibia 1.59028e-015
lfoot -5.44357 12.679
ltoes -21.0728
972
root 0.158092 17.8116 1.03267 -165.777 78.8852 181.24
lowerback -8.52311 -0.207881 -1.38203
upperback -9.97553 0.454966 2.03491
thorax -5.68655 0.65407 2.89318
lowerneck -6.21691 0.695494 -2.20527
upperneck 9.13844 1.65654 -3.90506
head 4.13081 0.600017 -0.821019
rclavicle 8.15017e-015 -4.77083e-015
rhumerus -19.7972 44.7645 -71.2185
rradius 121.61
rwrist -3.77322
rhand 12.3653 19.3032
rfingers 7.12502
rthumb 37.3661 -6.6657
lclavicle 8.15017e-015 -4.77083e-015
lhumerus -28.2257 -36.8382 80.7867
lradius 119.836
lwrist 27.8703
lhand -9.12661 28.6364
lfingers 7.12502
lthumb 16.8246 57.9275
rfemur -11.8276 11.1221 16.9768
rtibia 14.4209
rfoot -14.3935 -21.7293
rtoes -17.9034
lfemur -7.45714 -14.6618 -12.2235
ltibia -1.66979e-014
lfoot -5.38473 12.7177
ltoes -21.0305
